# xmcd
#
# Track frame offsets: 
#        150
#        14114
#        26215
#        44197
#        61139
#        79691
#        90661
#        107277
#        118951
#        132480
#        146764
#
# Disc length: 2160 seconds
#
# Revision: 2
# Processed by: cddbd v1.5.2PL0 Copyright (c) Steve Scherf et al.
# Submitted via: ExactAudioCopyFreeDBPlugin 1.0
#
DISCID=a0086e0b
DTITLE=Booker T. and The MG's - Soul Limbo  (24bit remastered)
DYEAR=1968
DGENRE=Soul
TTITLE0=Be Young, Be Foolish, Be Happy
TTITLE1=La La Means I Love You
TTITLE2=Hang 'Em High
TTITLE3=Willow Weep For Me
TTITLE4=Over Easy
TTITLE5=Soul Limbo
TTITLE6=Eleanor Rigby
TTITLE7=Heads Or Tails
TTITLE8=(Sweet, Sweet, Baby) Since You've Been Gone
TTITLE9=Born Under A Bad Sign
TTITLE10=Foxy Lady
EXTD=
EXTT0=
EXTT1=
EXTT2=
EXTT3=
EXTT4=
EXTT5=
EXTT6=
EXTT7=
EXTT8=
EXTT9=
EXTT10=
PLAYORDER=
